<svg xmlns="http://www.w3.org/2000/svg" viewBox="0 0 64 64" role="img" aria-label="Travel Llama favicon">
  <defs>
    <linearGradient id="sky" x1="0" y1="0" x2="1" y2="1">
      <stop offset="0%" stop-color="#f8e9c6"/>
      <stop offset="100%" stop-color="#f3d89b"/>
    </linearGradient>
  </defs>
  <rect width="64" height="64" rx="14" fill="url(#sky)"/>
  <circle cx="49" cy="16" r="6" fill="#f3b36c"/>
  <path d="M14 39c0-9 7-16 16-16h4c9 0 16 7 16 16v7H14v-7z" fill="#fbf7ef"/>
  <rect x="26" y="13" width="10" height="15" rx="5" fill="#fbf7ef"/>
  <rect x="22" y="46" width="6" height="11" rx="3" fill="#fbf7ef"/>
  <rect x="36" y="46" width="6" height="11" rx="3" fill="#fbf7ef"/>
  <ellipse cx="32" cy="36" rx="8.8" ry="7.4" fill="#f0dbc3"/>
  <circle cx="28.5" cy="35.2" r="1.2" fill="#3b2a1b"/>
  <circle cx="35.5" cy="35.2" r="1.2" fill="#3b2a1b"/>
  <path d="M29.2 39.1c1.7 1.5 3.9 1.5 5.6 0" stroke="#8a5e3c" stroke-width="1.8" stroke-linecap="round" fill="none"/>
  <path d="M42 18l8 2-6 2" stroke="#8a5e3c" stroke-width="1.8" stroke-linecap="round" stroke-linejoin="round" fill="none"/>
</svg>
